<svg xmlns="http://www.w3.org/2000/svg" viewBox="0 0 355.11 82.49"><defs><style>.cls-1{fill:#343a40;}.cls-2{fill:#49aaea;}.cls-3{fill:#ff4c50;}.cls-4{fill:#03acb8;}.cls-5{fill:#ffcc1d;}</style></defs><g id="Layer_2" data-name="Layer 2"><g id="Layer_1-2" data-name="Layer 1"><g id="Logo-lockup"><path id="Bequest" class="cls-1" d="M113,58.69a3.71,3.71,0,0,0,3.76,3.76h15.89c9.46,0,15.71-4.06,15.71-11.64v-.12c0-5.77-3.46-8.62-8.43-10.32l.2-.1c3.08-1.65,5.87-4.37,5.87-9.36v-.12a9.5,9.5,0,0,0-2.85-7C140.7,21.33,136.88,20,132,20H116.74A3.71,3.71,0,0,0,113,23.76Zm7.34-20.8V26.61h10.74c4.79,0,7.46,2.06,7.46,5.39v.13c0,3.88-3.22,5.76-8,5.76Zm0,18V44.2h11.83c5.88,0,8.73,2.12,8.73,5.7V50c0,3.82-3.09,5.82-8.19,5.82ZM161.44,44.2c.67-5,3.82-8.44,8.31-8.44,4.85,0,7.64,3.7,8.13,8.44Zm20.69,14.73a3.21,3.21,0,0,0,1-2.24,2.89,2.89,0,0,0-2.92-3,2.77,2.77,0,0,0-1.88.66,11.49,11.49,0,0,1-7.58,2.8c-4.73,0-8.43-2.92-9.22-8.13h20.08A3.44,3.44,0,0,0,185,45.53c0-7.4-5-15.77-15.23-15.77-9.16,0-15.65,7.52-15.65,16.68v.12c0,9.89,7.16,16.62,16.44,16.62A16.46,16.46,0,0,0,182.13,58.93ZM224,33.76a3.67,3.67,0,1,0-7.34-.06v1.7l-.16-.21a13,13,0,0,0-10.76-5.43c-7.64,0-14.86,6-14.86,16.62v.12c0,10.61,7.34,16.62,14.86,16.62,5.22,0,8.55-2.67,10.92-6V68.82a3.67,3.67,0,0,0,7.34,0Zm-16.5,2.37c4.91,0,9.28,4.06,9.28,10.25v.12c0,6.13-4.37,10.25-9.28,10.25s-9.22-4.06-9.22-10.25v-.12C198.32,40,202.51,36.13,207.54,36.13Zm54.16-2.37a3.72,3.72,0,0,0-3.7-3.7,3.68,3.68,0,0,0-3.7,3.7V48.5c0,5-3,7.89-7.21,7.89s-6.86-2.79-6.86-7.77V33.76a3.67,3.67,0,1,0-7.34,0V50.81c0,7.46,4.19,12.31,11.41,12.31,5,0,7.94-2.61,10-5.64v1.64a3.7,3.7,0,0,0,7.4,0ZM276.38,44.2c.67-5,3.82-8.44,8.31-8.44,4.85,0,7.64,3.7,8.13,8.44Zm20.68,14.73a3.17,3.17,0,0,0,1-2.24,2.88,2.88,0,0,0-2.91-3,2.76,2.76,0,0,0-1.88.66,11.51,11.51,0,0,1-7.58,2.8c-4.73,0-8.43-2.92-9.22-8.13h20.08A3.44,3.44,0,0,0,300,45.53c0-7.4-5-15.77-15.23-15.77-9.16,0-15.65,7.52-15.65,16.68v.12c0,9.89,7.16,16.62,16.44,16.62A16.43,16.43,0,0,0,297.06,58.93Zm21.41,4.13c6.68,0,11.89-3.34,11.89-10.07v-.12c0-5.76-5.27-7.89-9.94-9.34l-1.5-.48c-3.13-1-5.72-2-5.72-4.07v-.12c0-1.82,1.64-3.16,4.49-3.16a17.42,17.42,0,0,1,7.52,2.19,2.89,2.89,0,0,0,1.45.36,3,3,0,0,0,3-3,3.12,3.12,0,0,0-1.76-2.79,22,22,0,0,0-10.07-2.61c-6.37,0-11.4,3.7-11.4,9.77v.12c0,6.12,5.27,8.06,10,9.4l1.48.45c3.13,1,5.68,1.88,5.68,4v.12c0,2.12-1.82,3.46-5,3.46a16.93,16.93,0,0,1-9.22-3.1,3.25,3.25,0,0,0-1.58-.42,2.93,2.93,0,0,0-3,3,2.82,2.82,0,0,0,1.39,2.55A22,22,0,0,0,318.47,63.06ZM348,63c-5.4,0-9.22-2.37-9.22-9.4V36.73h-1.21a3.15,3.15,0,1,1,0-6.3h1.21V25a3.67,3.67,0,0,1,7.34,0v5.46h5.76a3.15,3.15,0,1,1,0,6.3h-5.76V52.44c0,2.85,1.46,4,3.94,4a17.43,17.43,0,0,0,1.82-.18,3.09,3.09,0,0,1,3.1,3,3.17,3.17,0,0,1-1.94,2.85A14.79,14.79,0,0,1,348,63Z"/></g><path class="cls-2" d="M0,44.14A38.35,38.35,0,0,0,38.35,82.49h0V44.14Z"/><path class="cls-3" d="M44.14,82.49A38.35,38.35,0,0,0,82.49,44.14H44.14Z"/><path class="cls-4" d="M38.35,38.35A38.35,38.35,0,0,0,0,0H0V38.35Z"/><path class="cls-5" d="M63.31,0h0A19.18,19.18,0,0,1,82.49,19.18V38.35a0,0,0,0,1,0,0H44.14a0,0,0,0,1,0,0V19.18A19.18,19.18,0,0,1,63.31,0Z"/></g></g></svg>